<svg xmlns="http://www.w3.org/2000/svg" viewBox="0 0 100 100">
  <title>CogniFlow Icon</title>
  <defs>
    <linearGradient id="grad" x1="0%" y1="0%" x2="100%" y2="100%">
      <stop offset="0%" style="stop-color:#3b82f6;" />
      <stop offset="100%" style="stop-color:#14b8a6;" />
    </linearGradient>
  </defs>
  <path fill="url(#grad)" d="M50,10 C27.9,10 10,27.9 10,50 C10,64.2 17.5,76.7 29,84.1 C29,81.1 30.2,78.2 32,76 C30,73.1 28.5,69.7 28.5,66 C28.5,57.4 35.4,50.5 44,50.5 C46.8,50.5 49.4,51.4 51.5,52.9 C52.6,50.5 54.8,48.7 57.5,48.1 C58,45.2 60.5,43 63.5,43 C67.1,43 70,45.9 70,49.5 C70,50.8 69.6,52 69,53 C74.1,52.4 78,48.2 78,43 C78,38 74,34 69,34 C68.3,34 67.6,34.1 67,34.3 C65.5,29.1 60.7,25.5 55,25.5 C49.6,25.5 45,29.7 44.2,35 C42.1,33.5 39.5,32.5 36.5,32.5 C30.7,32.5 26,37.2 26,43 C26,43.8 26.1,44.6 26.3,45.3 C21.6,48.5 18.5,53.8 18.5,60 C18.5,66.9 22.8,72.8 29,75.9 C29,76.5 29,77.2 29,77.8 C21.1,72.4 16,62 16,50 C16,31.2 31.2,16 50,16 C60.2,16 69.1,20.5 75.5,27.5 C73,29.3 70.8,31.5 69,34.3 C72.8,36.5 75.5,40.4 75.5,45 C75.5,49.1 72.9,52.6 69.5,54.2 C71.1,56.6 72,59.2 72,62 C72,68.6 66.6,74 60,74 C58.2,74 56.6,73.6 55.1,72.9 C53.2,76.3 49.7,78.5 45.5,78.5 C40.8,78.5 36.8,76.1 34.7,72.6 C32.7,73.8 30.4,74.5 28,74.5 C25.8,74.5 23.7,74 21.9,73.1 C28.5,84.1 38.5,90 50,90 C72.1,90 90,72.1 90,50 C90,27.9 72.1,10 50,10 Z"/>
</svg>